<svg width="203" height="19" viewBox="0 0 203 19" fill="none" xmlns="http://www.w3.org/2000/svg">
<path d="M17.42 12.748C17.108 14.0827 16.5707 15.1573 15.808 15.972C15.0627 16.7867 14.1527 17.376 13.078 17.74C12.0033 18.0867 10.8073 18.26 9.49 18.26C7.68733 18.26 6.12733 17.9133 4.81 17.22C3.51 16.5267 2.50467 15.5213 1.794 14.204C1.10067 12.8867 0.754 11.292 0.754 9.42C0.754 7.548 1.10067 5.95333 1.794 4.636C2.50467 3.31867 3.51 2.31333 4.81 1.62C6.12733 0.926666 7.68733 0.58 9.49 0.58C10.7553 0.58 11.934 0.761999 13.026 1.126C14.118 1.47267 15.0367 2.02733 15.782 2.79C16.5447 3.55267 17.0473 4.54933 17.29 5.78L12.09 7.808C11.9513 6.68133 11.6653 5.95333 11.232 5.624C10.816 5.29467 10.2873 5.13 9.646 5.13C9.05667 5.13 8.554 5.286 8.138 5.598C7.73933 5.89267 7.436 6.36067 7.228 7.002C7.03733 7.626 6.942 8.432 6.942 9.42C6.942 10.3907 7.02867 11.1967 7.202 11.838C7.39267 12.4793 7.696 12.956 8.112 13.268C8.528 13.5627 9.08267 13.71 9.776 13.71C10.4 13.71 10.9113 13.528 11.31 13.164C11.7087 12.7827 11.96 12.1847 12.064 11.37L17.42 12.748ZM27.0857 0.58C28.9057 0.58 30.4657 0.926666 31.7657 1.62C33.0657 2.31333 34.0624 3.31867 34.7557 4.636C35.449 5.95333 35.7957 7.548 35.7957 9.42C35.7957 11.292 35.449 12.8867 34.7557 14.204C34.0624 15.5213 33.0657 16.5267 31.7657 17.22C30.4657 17.9133 28.9057 18.26 27.0857 18.26C25.283 18.26 23.723 17.9133 22.4057 17.22C21.1057 16.5267 20.1004 15.5213 19.3897 14.204C18.6964 12.8867 18.3497 11.292 18.3497 9.42C18.3497 7.548 18.6964 5.95333 19.3897 4.636C20.1004 3.31867 21.1057 2.31333 22.4057 1.62C23.723 0.926666 25.283 0.58 27.0857 0.58ZM27.0857 5.13C26.4964 5.13 26.011 5.286 25.6297 5.598C25.2657 5.89267 24.9884 6.352 24.7977 6.976C24.6244 7.6 24.5377 8.41467 24.5377 9.42C24.5377 10.408 24.6244 11.2227 24.7977 11.864C24.9884 12.488 25.2657 12.956 25.6297 13.268C26.011 13.5627 26.4964 13.71 27.0857 13.71C27.675 13.71 28.1517 13.5627 28.5157 13.268C28.897 12.956 29.1744 12.488 29.3477 11.864C29.521 11.2227 29.6077 10.408 29.6077 9.42C29.6077 8.41467 29.521 7.6 29.3477 6.976C29.1744 6.352 28.897 5.89267 28.5157 5.598C28.1517 5.286 27.675 5.13 27.0857 5.13ZM46.2611 0.839999C48.9478 0.839999 50.9758 1.58533 52.3451 3.076C53.7144 4.56667 54.3991 6.68133 54.3991 9.42C54.3991 12.1413 53.7144 14.256 52.3451 15.764C50.9758 17.2547 48.9478 18 46.2611 18H37.8371V0.839999H46.2611ZM45.4031 13.684C46.5298 13.684 47.2751 13.346 47.6391 12.67C48.0204 11.9767 48.2111 10.8933 48.2111 9.42C48.2111 7.94667 48.0204 6.872 47.6391 6.196C47.2751 5.50267 46.5298 5.156 45.4031 5.156H43.8951V13.684H45.4031ZM56.4484 18V0.839999H70.6964V5.286H62.5064V7.418H69.1104V11.526H62.5064V13.554H71.0084V18H56.4484ZM84.6058 18.26C83.3752 18.26 82.2745 18.0953 81.3038 17.766C80.3332 17.4193 79.5705 16.8907 79.0158 16.18C78.4785 15.4693 78.2012 14.5593 78.1838 13.45C78.1838 13.034 78.2532 12.566 78.3918 12.046C78.5305 11.526 78.7905 11.0233 79.1718 10.538C79.5705 10.0527 80.1252 9.64533 80.8358 9.316C81.5465 8.96933 82.4652 8.77 83.5918 8.718L84.2158 8.692C85.0132 8.18933 85.6025 7.756 85.9838 7.392C86.3825 7.01067 86.6425 6.664 86.7638 6.352C86.9025 6.04 86.9718 5.71067 86.9718 5.364C86.9718 5.01733 86.8678 4.74867 86.6598 4.558C86.4518 4.35 86.1832 4.246 85.8538 4.246C85.5072 4.246 85.2212 4.35867 84.9958 4.584C84.7705 4.80933 84.6578 5.14733 84.6578 5.598C84.6578 5.82333 84.7098 6.05733 84.8138 6.3C84.9178 6.52533 85.1085 6.81133 85.3858 7.158C85.6632 7.48733 86.0532 7.912 86.5558 8.432C87.0758 8.952 87.7432 9.61067 88.5578 10.408C89.3378 11.1707 90.0052 11.8207 90.5598 12.358C91.1145 12.878 91.6085 13.2853 92.0418 13.58C92.4925 13.8747 92.9345 14.0653 93.3678 14.152C93.8012 14.2387 94.3038 14.23 94.8758 14.126L94.5638 18.26C93.7318 18.26 92.9952 18.208 92.3538 18.104C91.7298 18.0173 91.1145 17.8267 90.5078 17.532C89.9012 17.2373 89.2338 16.804 88.5058 16.232C87.7952 15.66 86.9285 14.8973 85.9058 13.944C84.5365 12.644 83.4358 11.578 82.6038 10.746C81.7718 9.89667 81.1392 9.17733 80.7058 8.588C80.2898 7.99867 80.0125 7.46133 79.8738 6.976C79.7352 6.47333 79.6658 5.92733 79.6658 5.338C79.6658 4.558 79.8738 3.804 80.2898 3.076C80.7058 2.348 81.3558 1.75 82.2398 1.282C83.1412 0.814 84.2938 0.58 85.6978 0.58C87.1538 0.58 88.3065 0.805333 89.1558 1.256C90.0225 1.70667 90.6378 2.27 91.0018 2.946C91.3832 3.622 91.5738 4.30667 91.5738 5C91.5738 5.884 91.3398 6.69867 90.8718 7.444C90.4038 8.172 89.7105 8.77867 88.7918 9.264C87.8905 9.732 86.7725 10.044 85.4378 10.2L84.6838 10.72C84.2852 11.0147 83.9732 11.2833 83.7478 11.526C83.5398 11.7513 83.3925 11.9853 83.3058 12.228C83.2365 12.4533 83.2018 12.722 83.2018 13.034C83.2018 13.3287 83.2885 13.5973 83.4618 13.84C83.6525 14.0653 83.9125 14.2473 84.2418 14.386C84.5885 14.5073 84.9958 14.568 85.4638 14.568C86.1745 14.568 86.8158 14.4727 87.3878 14.282C87.9598 14.074 88.5318 13.8313 89.1038 13.554L89.5198 12.878C89.7625 12.4273 89.9618 11.942 90.1178 11.422C90.2738 10.8847 90.3518 10.226 90.3518 9.446H94.1478C94.0958 10.5553 93.8705 11.5607 93.4718 12.462C93.0905 13.346 92.5358 14.0913 91.8078 14.698L90.7678 15.374C90.2652 16.258 89.4852 16.96 88.4278 17.48C87.3878 18 86.1138 18.26 84.6058 18.26ZM119.059 12.748C118.747 14.0827 118.209 15.1573 117.447 15.972C116.701 16.7867 115.791 17.376 114.717 17.74C113.642 18.0867 112.446 18.26 111.129 18.26C109.326 18.26 107.766 17.9133 106.449 17.22C105.149 16.5267 104.143 15.5213 103.433 14.204C102.739 12.8867 102.393 11.292 102.393 9.42C102.393 7.548 102.739 5.95333 103.433 4.636C104.143 3.31867 105.149 2.31333 106.449 1.62C107.766 0.926666 109.326 0.58 111.129 0.58C112.394 0.58 113.573 0.761999 114.665 1.126C115.757 1.47267 116.675 2.02733 117.421 2.79C118.183 3.55267 118.686 4.54933 118.929 5.78L113.729 7.808C113.59 6.68133 113.304 5.95333 112.871 5.624C112.455 5.29467 111.926 5.13 111.285 5.13C110.695 5.13 110.193 5.286 109.777 5.598C109.378 5.89267 109.075 6.36067 108.867 7.002C108.676 7.626 108.581 8.432 108.581 9.42C108.581 10.3907 108.667 11.1967 108.841 11.838C109.031 12.4793 109.335 12.956 109.751 13.268C110.167 13.5627 110.721 13.71 111.415 13.71C112.039 13.71 112.55 13.528 112.949 13.164C113.347 12.7827 113.599 12.1847 113.703 11.37L119.059 12.748ZM128.724 0.58C130.544 0.58 132.104 0.926666 133.404 1.62C134.704 2.31333 135.701 3.31867 136.394 4.636C137.088 5.95333 137.434 7.548 137.434 9.42C137.434 11.292 137.088 12.8867 136.394 14.204C135.701 15.5213 134.704 16.5267 133.404 17.22C132.104 17.9133 130.544 18.26 128.724 18.26C126.922 18.26 125.362 17.9133 124.044 17.22C122.744 16.5267 121.739 15.5213 121.028 14.204C120.335 12.8867 119.988 11.292 119.988 9.42C119.988 7.548 120.335 5.95333 121.028 4.636C121.739 3.31867 122.744 2.31333 124.044 1.62C125.362 0.926666 126.922 0.58 128.724 0.58ZM128.724 5.13C128.135 5.13 127.65 5.286 127.268 5.598C126.904 5.89267 126.627 6.352 126.436 6.976C126.263 7.6 126.176 8.41467 126.176 9.42C126.176 10.408 126.263 11.2227 126.436 11.864C126.627 12.488 126.904 12.956 127.268 13.268C127.65 13.5627 128.135 13.71 128.724 13.71C129.314 13.71 129.79 13.5627 130.154 13.268C130.536 12.956 130.813 12.488 130.986 11.864C131.16 11.2227 131.246 10.408 131.246 9.42C131.246 8.41467 131.16 7.6 130.986 6.976C130.813 6.352 130.536 5.89267 130.154 5.598C129.79 5.286 129.314 5.13 128.724 5.13ZM153.698 5.286H145.534V7.678H152.138V12.124H145.534V18H139.476V0.839999H153.698V5.286ZM169.668 5.286H161.504V7.678H168.108V12.124H161.504V18H155.446V0.839999H169.668V5.286ZM171.417 18V0.839999H185.665V5.286H177.475V7.418H184.079V11.526H177.475V13.554H185.977V18H171.417ZM187.693 18V0.839999H201.941V5.286H193.751V7.418H200.355V11.526H193.751V13.554H202.253V18H187.693Z" fill="black"/>
</svg>
